<svg width="32" height="32" viewBox="0 0 32 32" fill="none" xmlns="http://www.w3.org/2000/svg">
  <defs>
    <linearGradient id="grad1" x1="0%" y1="0%" x2="100%" y2="100%">
      <stop offset="0%" style="stop-color:#0284c7;stop-opacity:1" />
      <stop offset="100%" style="stop-color:#0369a1;stop-opacity:1" />
    </linearGradient>
  </defs>
  
  <!-- Background circle -->
  <circle cx="16" cy="16" r="15" fill="url(#grad1)" stroke="#ffffff" stroke-width="2"/>
  
  <!-- Wrench icon -->
  <path d="M20.5 8.5L19.5 9.5L22.5 12.5L23.5 11.5C24.3 10.7 24.3 9.3 23.5 8.5C22.7 7.7 21.3 7.7 20.5 8.5Z" fill="white"/>
  <path d="M18.5 10.5L9.5 19.5L10.5 20.5L19.5 11.5L18.5 10.5Z" fill="white"/>
  <path d="M8.5 20.5L7.5 21.5L10.5 24.5L11.5 23.5L8.5 20.5Z" fill="white"/>
  
  <!-- Pipe/drain element -->
  <rect x="12" y="12" width="8" height="2" rx="1" fill="white" opacity="0.8"/>
  <rect x="12" y="15" width="6" height="2" rx="1" fill="white" opacity="0.6"/>
  <rect x="12" y="18" width="4" height="2" rx="1" fill="white" opacity="0.4"/>
</svg> 